<?xml version="1.0" standalone="no"?>
<!DOCTYPE svg PUBLIC "-//W3C//DTD SVG 20010904//EN"
 "http://www.w3.org/TR/2001/REC-SVG-20010904/DTD/svg10.dtd">
<svg version="1.0" xmlns="http://www.w3.org/2000/svg"
 width="2083.000000pt" height="2083.000000pt" viewBox="0 0 2083.000000 2083.000000"
 preserveAspectRatio="xMidYMid meet">
<metadata>
Created by potrace 1.11, written by Peter Selinger 2001-2013
</metadata>
<g transform="translate(0.000000,2083.000000) scale(0.100000,-0.100000)"
fill="#000000" stroke="none">
<path d="M2500 14043 c0 -110 17 -446 26 -510 l5 -43 -760 0 -761 0 0 -660 0
-660 873 0 873 0 34 -117 c255 -896 706 -1765 1295 -2498 292 -363 698 -772
1060 -1068 1223 -1001 2750 -1607 4435 -1761 598 -55 1311 -46 1915 25 2214
257 4149 1330 5400 2994 511 680 915 1491 1148 2305 l33 115 872 3 872 2 0
660 0 660 -756 0 -757 0 6 88 c4 48 10 194 13 325 l7 237 -7916 0 -7917 0 0
-97z"/>
</g>
</svg>
